<?xml version="1.0" encoding="UTF-8" ?>
<!DOCTYPE svg PUBLIC "-//W3C//DTD SVG 1.1//EN" "http://www.w3.org/Graphics/SVG/1.1/DTD/svg11.dtd">
<svg width="1038pt" height="1039pt" viewBox="0 0 1038 1039" version="1.1" xmlns="http://www.w3.org/2000/svg">
<g id="#2d2728ff">
<path fill="#2d2728" opacity="1.00" d=" M 92.91 10.87 C 141.25 -1.52 191.58 1.41 241.00 1.00 C 293.73 1.50 346.61 -0.86 399.07 4.78 C 431.86 8.08 466.17 17.89 489.65 42.29 C 521.23 77.54 524.77 127.13 526.79 172.06 C 527.28 218.35 526.86 264.69 526.99 311.00 C 512.99 310.99 498.99 311.02 484.99 310.99 C 487.19 266.76 485.53 222.31 485.91 177.99 C 482.57 141.99 484.91 101.03 460.71 71.25 C 444.05 53.55 419.07 48.39 396.00 45.10 C 342.83 40.17 289.38 41.23 236.00 40.98 C 192.01 43.15 147.33 40.16 104.03 50.13 C 90.26 54.45 76.14 60.32 66.21 71.20 C 50.40 89.66 46.09 114.65 43.26 138.06 C 38.45 217.48 39.56 297.20 42.44 376.68 C 45.51 403.86 46.76 433.88 65.02 455.97 C 77.74 471.67 98.18 477.91 117.28 481.65 C 172.71 490.69 229.08 485.71 284.96 487.03 C 285.09 496.01 284.98 505.00 284.99 514.00 C 222.39 515.15 159.24 510.89 97.12 519.70 C 68.35 511.64 38.54 495.89 23.66 468.31 C 4.64 436.91 4.11 398.65 0.00 363.61 L 0.00 167.39 C 4.34 130.91 4.06 90.38 25.36 58.32 C 39.71 33.53 65.95 18.36 92.91 10.87 Z" />
<path fill="#2d2728" opacity="1.00" d=" M 755.01 521.00 C 813.29 520.53 871.72 522.66 929.79 517.66 C 955.56 522.84 982.05 533.10 999.96 553.05 C 1032.66 588.88 1034.54 640.30 1036.79 686.06 C 1037.30 739.69 1036.83 793.35 1037.02 847.00 C 1035.56 880.00 1034.83 913.47 1026.60 945.69 C 1020.80 968.53 1008.43 990.08 989.96 1004.96 C 954.71 1034.00 906.33 1035.35 862.94 1037.79 C 807.64 1038.30 752.31 1037.83 696.99 1038.02 C 654.68 1035.12 609.20 1036.38 571.00 1014.99 C 542.71 1000.25 526.49 970.19 518.36 940.87 C 526.94 879.71 522.95 817.63 524.00 756.01 C 532.65 756.00 541.30 755.92 549.96 756.03 C 550.24 796.72 550.47 837.39 552.13 878.01 C 554.56 908.79 555.57 942.79 576.15 967.84 C 596.15 987.57 625.10 992.75 651.99 994.88 C 720.87 999.21 790.02 996.10 859.01 996.91 C 896.08 993.61 938.89 996.10 968.76 969.78 C 993.03 942.12 993.43 902.72 995.88 868.01 C 996.17 809.67 995.90 751.33 996.02 692.99 C 994.62 668.95 993.48 644.75 988.98 621.00 C 984.95 601.02 975.23 580.56 956.93 570.07 C 930.17 555.43 898.75 554.11 869.02 552.04 C 830.98 552.43 793.11 550.23 755.06 550.97 C 754.81 540.98 755.08 530.98 755.01 521.00 Z" />
</g>
<g id="#F5364Dff">
<path fill="#F5364D" opacity="1.00" d=" M 555.03 1.04 C 655.35 0.94 755.68 1.05 856.01 0.98 C 898.68 3.82 945.04 3.41 982.19 27.83 C 1007.02 43.87 1021.95 71.39 1028.38 99.71 C 1035.35 128.60 1036.06 158.47 1037.02 188.00 C 1036.58 242.88 1037.79 297.84 1036.41 352.66 C 1033.96 394.82 1033.06 441.71 1005.43 476.35 C 987.26 500.19 957.95 510.96 929.79 517.66 C 871.72 522.66 813.29 520.53 755.01 521.00 C 754.99 509.68 754.94 498.36 755.03 487.05 C 808.22 486.42 861.45 484.80 914.34 478.41 C 935.44 474.21 959.34 469.29 972.98 450.97 C 994.45 423.28 993.44 386.19 995.91 353.01 C 996.13 296.34 995.92 239.66 996.01 182.99 C 994.24 156.26 993.74 129.12 986.97 103.00 C 981.98 83.61 969.85 65.16 951.01 56.99 C 911.53 39.34 866.92 43.91 825.01 40.99 C 735.02 40.98 645.03 41.05 555.04 40.96 C 554.95 27.65 554.96 14.34 555.03 1.04 Z" />
<path fill="#F5364D" opacity="1.00" d=" M 385.66 315.48 C 418.47 309.95 451.84 311.04 484.99 310.99 C 498.99 311.02 512.99 310.99 526.99 311.00 C 527.00 324.32 527.04 337.64 526.97 350.96 C 489.03 350.56 451.16 351.71 413.33 353.56 C 397.40 355.87 380.49 355.89 366.17 364.22 C 356.39 375.84 354.87 391.51 353.10 406.00 C 347.79 471.86 350.73 538.01 351.07 604.01 C 353.88 627.94 351.40 654.35 364.07 675.95 C 382.28 688.17 405.98 687.83 427.06 689.79 C 498.93 690.42 571.08 693.59 642.67 686.42 C 656.38 684.65 674.21 682.88 680.02 668.02 C 692.94 630.04 687.09 589.24 690.00 550.01 C 690.03 499.37 690.65 448.69 685.42 398.33 C 683.76 383.90 681.29 364.91 664.87 360.16 C 632.30 349.99 597.64 352.40 563.99 351.96 C 561.71 351.24 554.49 352.47 555.00 348.01 C 554.98 335.69 554.96 323.36 555.03 311.04 C 592.11 310.74 629.45 310.98 666.01 317.98 C 687.32 322.33 708.95 334.81 716.81 356.14 C 727.33 379.98 728.02 406.45 729.96 431.98 C 730.00 488.66 730.07 545.34 729.93 602.01 C 727.24 631.29 728.20 662.10 715.35 689.32 C 708.55 702.41 697.51 713.60 683.32 718.40 C 659.90 728.46 634.00 729.00 609.02 730.96 C 552.34 731.00 495.66 731.07 438.99 730.93 C 409.72 728.22 378.90 729.21 351.68 716.35 C 338.84 709.66 327.77 698.94 322.89 685.07 C 312.22 660.17 311.63 632.60 310.00 606.01 C 309.99 552.67 310.02 499.33 309.98 445.99 C 311.66 420.63 312.07 394.91 318.06 370.02 C 322.45 357.40 327.00 343.45 338.14 335.11 C 350.99 322.90 368.88 318.97 385.66 315.48 Z" />
<path fill="#F5364D" opacity="1.00" d=" M 97.12 519.70 C 159.24 510.89 222.39 515.15 284.99 514.00 C 284.98 526.31 285.06 538.62 284.97 550.94 C 240.35 550.54 195.85 551.85 151.32 553.54 C 123.07 556.21 92.12 558.19 69.72 577.72 C 60.70 586.20 55.04 597.49 51.10 609.07 C 40.51 642.93 41.20 678.93 41.02 714.00 C 38.19 763.97 42.10 813.97 41.07 864.01 C 44.87 900.31 42.24 942.26 69.18 970.81 C 97.17 994.64 136.38 994.23 170.99 996.88 C 229.32 997.17 287.67 996.90 346.01 997.01 C 372.20 995.66 398.55 993.81 424.29 988.34 C 443.34 983.72 460.55 971.28 470.00 954.00 C 477.20 941.44 478.49 926.75 481.81 912.93 C 489.44 862.40 484.29 811.15 486.42 760.32 C 486.86 758.85 486.98 757.19 488.18 756.11 C 500.12 755.84 512.06 756.05 524.00 756.01 C 522.95 817.63 526.94 879.71 518.36 940.87 C 510.28 976.62 485.42 1009.69 450.31 1022.37 C 417.30 1035.74 381.00 1036.16 346.00 1038.02 C 289.46 1037.58 232.83 1038.79 176.34 1037.41 C 128.95 1035.01 74.84 1033.80 38.75 998.25 C 6.95 964.80 2.91 916.13 0.00 872.62 L 0.00 673.39 C 3.89 632.33 6.57 586.38 35.75 553.75 C 51.77 535.95 74.26 525.53 97.12 519.70 Z" />
</g>
</svg>
